<svg width="1200" height="261" viewBox="0 0 1200 261" fill="none" xmlns="http://www.w3.org/2000/svg">
<line y1="130.5" x2="1200" y2="130.5" stroke="#EEEEEE"/>
<line x1="116.5" y1="1" x2="116.5" y2="261" stroke="#EEEEEE"/>
<path d="M120.5 131C120.5 133.209 118.709 135 116.5 135C114.291 135 112.5 133.209 112.5 131C112.5 128.791 114.291 127 116.5 127C118.709 127 120.5 128.791 120.5 131Z" fill="#EEEEEE" fill-opacity="0.933333"/>
<line x1="236" y1="1" x2="236" y2="261" stroke="#EEEEEE"/>
<path d="M240 131C240 133.209 238.209 135 236 135C233.791 135 232 133.209 232 131C232 128.791 233.791 127 236 127C238.209 127 240 128.791 240 131Z" fill="#EEEEEE" fill-opacity="0.933333"/>
<line x1="359" y1="1" x2="359" y2="261" stroke="#EEEEEE"/>
<path d="M363 131C363 133.209 361.209 135 359 135C356.791 135 355 133.209 355 131C355 128.791 356.791 127 359 127C361.209 127 363 128.791 363 131Z" fill="#EEEEEE" fill-opacity="0.933333"/>
<line x1="482" y1="1" x2="482" y2="261" stroke="#EEEEEE"/>
<path d="M486 131C486 133.209 484.209 135 482 135C479.791 135 478 133.209 478 131C478 128.791 479.791 127 482 127C484.209 127 486 128.791 486 131Z" fill="#EEEEEE" fill-opacity="0.933333"/>
<line x1="601" y1="-2.18557e-08" x2="601" y2="260" stroke="#EEEEEE"/>
<path d="M605 130C605 132.209 603.209 134 601 134C598.791 134 597 132.209 597 130C597 127.791 598.791 126 601 126C603.209 126 605 127.791 605 130Z" fill="#EEEEEE" fill-opacity="0.933333"/>
<line x1="722" y1="1" x2="722" y2="261" stroke="#EEEEEE"/>
<path d="M726 131C726 133.209 724.209 135 722 135C719.791 135 718 133.209 718 131C718 128.791 719.791 127 722 127C724.209 127 726 128.791 726 131Z" fill="#EEEEEE" fill-opacity="0.933333"/>
<line x1="841" y1="1" x2="841" y2="261" stroke="#EEEEEE"/>
<path d="M845 131C845 133.209 843.209 135 841 135C838.791 135 837 133.209 837 131C837 128.791 838.791 127 841 127C843.209 127 845 128.791 845 131Z" fill="#EEEEEE" fill-opacity="0.933333"/>
<line x1="962" y1="1" x2="962" y2="261" stroke="#EEEEEE"/>
<path d="M966 131C966 133.209 964.209 135 962 135C959.791 135 958 133.209 958 131C958 128.791 959.791 127 962 127C964.209 127 966 128.791 966 131Z" fill="#EEEEEE" fill-opacity="0.933333"/>
<line x1="1085" y1="1" x2="1085" y2="261" stroke="#EEEEEE"/>
<path d="M1089 131C1089 133.209 1087.21 135 1085 135C1082.79 135 1081 133.209 1081 131C1081 128.791 1082.79 127 1085 127C1087.21 127 1089 128.791 1089 131Z" fill="#EEEEEE" fill-opacity="0.933333"/>
</svg>
